# xmcd
#
# Track frame offsets:
#	150
#	13272
#	30746
#	50367
#	68492
#	91993
#	105754
#	130144
#	142359
#	159088
#	178737
#	202083
#	223336
#	238332
#
# Disc length: 3450 seconds
#
# Revision: 1
# Processed by: cddbd v1.5.2PL0 Copyright (c) Steve Scherf et al.
# Submitted via: audiograbber 1.83.01
#
DISCID=c90d780e
DTITLE=Isla - Early Memories CD 2
DYEAR=1900
DGENRE=Easy Listening
TTITLE0=Flying High
TTITLE1=I Don't Know Why
TTITLE2=I'll Forgive You
TTITLE3=United We Conquer
TTITLE4=Hand of Time
TTITLE5=You're Lying- One More Time
TTITLE6=Island of Memories
TTITLE7=Take Me Back ti Ireland
TTITLE8=Old Accordion Man
TTITLE9=My Home in Monymore
TTITLE10=Why Do We Love
TTITLE11=Sweet Baby Mine
TTITLE12=Fiddle on the Wall
TTITLE13=Journey's End
EXTD=
EXTT0=
EXTT1=
EXTT2=
EXTT3=
EXTT4=
EXTT5=
EXTT6=
EXTT7=
EXTT8=
EXTT9=
EXTT10=
EXTT11=
EXTT12=
EXTT13=
PLAYORDER=
